Coordinates
version=1
nRows=8
nColumns=46
inDegrees=yes

Units are S.I. units (second, meters, Newtons, ...)
Angles are in degrees.

endheader
time	pelvis_tilt	pelvis_list	pelvis_rotation	pelvis_tx	pelvis_ty	pelvis_tz	bb_angle	bb_tx	bb_ty	bb_tz	hip_flexion_r	hip_adduction_r	hip_rotation_r	knee_angle_r	knee_angle_r_beta	ankle_angle_r	subtalar_angle_r	mtp_angle_r	crank_angle_r	hip_flexion_l	hip_adduction_l	hip_rotation_l	knee_angle_l	knee_angle_l_beta	ankle_angle_l	subtalar_angle_l	mtp_angle_l	crank_angle_l	lumbar_extension	lumbar_bending	lumbar_rotation	arm_flex_r	arm_add_r	arm_rot_r	elbow_flex_r	pro_sup_r	wrist_flex_r	wrist_dev_r	arm_flex_l	arm_add_l	arm_rot_l	elbow_flex_l	pro_sup_l	wrist_flex_l	wrist_dev_l
      7.50500000	    -22.29369538	     -6.86672024	      4.56733696	      0.34631423	      1.22529146	     -0.24322915	      0.00000000	      0.50000000	      0.00000000	      0.25000000	     53.09390390	    -11.32740803	    -11.13601248	     83.30793024	      1.45399768	     -7.82828547	      4.66665115	      0.00000000	      0.00000000	     55.10817632	     -8.88063977	      0.66124172	     49.80381180	      0.86924050	      6.94365989	      5.89426475	      0.00000000	      0.00000000	    -61.26624797	     -1.18479907	      5.01908867	     67.29845452	    -30.30229744	     35.67956155	     57.18015298	     47.94972091	      0.00000000	      0.00000000	     71.98921828	     -8.48016744	     39.42319524	     59.33311935	     47.83048868	      0.00000000	      0.00000000
      7.51000000	    -22.20507742	     -7.61526129	      4.45568383	      0.34637116	      1.22303488	     -0.24382228	      0.00000000	      0.50000000	      0.00000000	      0.25000000	     54.27724911	    -11.23409510	    -11.41947581	     85.53342182	      1.49283983	     -7.00367235	      4.97600889	      0.00000000	      0.00000000	     53.75554142	     -9.39396108	      1.00476455	     47.73452949	      0.83312471	      6.08019936	      5.80142063	      0.00000000	      0.00000000	    -61.04949063	     -0.50633333	      5.64539496	     67.36286580	    -30.12271279	     35.80582653	     57.20574110	     47.96644116	      0.00000000	      0.00000000	     71.69548853	     -8.78628846	     39.39665020	     59.29349315	     47.82710156	      0.00000000	      0.00000000
      7.51500000	    -22.18398109	     -7.96612468	      4.24027630	      0.34624692	      1.22068662	     -0.24559895	      0.00000000	      0.50000000	      0.00000000	      0.25000000	     55.64257516	    -11.57887034	    -11.29070752	     87.78409858	      1.53212155	     -5.87012719	      6.23110406	      0.00000000	      0.00000000	     52.35927944	     -9.59007328	      1.05394264	     45.71621281	      0.79789844	      4.76914099	      4.99735851	      0.00000000	      0.00000000	    -60.82067046	      0.11761103	      5.11573410	     68.70442175	    -29.03463338	     38.15178809	     56.00258332	     48.02255192	      0.00000000	      0.00000000	     70.56822915	    -10.45814621	     38.72140049	     61.11632291	     48.07941912	      0.00000000	      0.00000000
      7.52000000	    -22.09754491	     -8.76822584	      3.95705146	      0.34617135	      1.21817422	     -0.24662816	      0.00000000	      0.50000000	      0.00000000	      0.25000000	     56.90319145	    -11.39169190	    -11.54234527	     89.90054815	      1.56906056	     -5.22337982	      6.35840871	      0.00000000	      0.00000000	     51.12095558	    -10.34044187	      1.30242262	     44.01553622	      0.76821603	      4.07414369	      5.15517623	      0.00000000	      0.00000000	    -60.60794151	      0.86284238	      5.79245676	     68.76853599	    -28.74498555	     38.22637563	     56.09193140	     48.03675909	      0.00000000	      0.00000000	     70.18258509	    -10.53341164	     38.84877709	     61.06851457	     48.08559265	      0.00000000	      0.00000000
      7.52500000	    -22.07750856	     -9.19439177	      3.68115399	      0.34613286	      1.21575567	     -0.24763170	      0.00000000	      0.50000000	      0.00000000	      0.25000000	     58.30271484	    -11.52466850	    -11.43323448	     92.02183058	      1.60608393	     -4.05458898	      7.43395758	      0.00000000	      0.00000000	     49.77998529	    -10.77276936	      1.26501132	     42.17385738	      0.73607267	      2.86083447	      4.71643514	      0.00000000	      0.00000000	    -60.27589144	      1.25551926	      6.05409877	     68.84079808	    -28.56513017	     38.57688642	     55.99044242	     48.05571683	      0.00000000	      0.00000000	     69.69337268	    -11.25686487	     38.72277399	     61.10577727	     48.08822995	      0.00000000	      0.00000000
      7.53000000	    -21.95436769	     -9.92891963	      3.44854353	      0.34594655	      1.21333443	     -0.24849199	      0.00000000	      0.50000000	      0.00000000	      0.25000000	     59.56822652	    -11.42761591	    -11.67753259	     94.01298991	      1.64083621	     -3.40157872	      7.64446588	      0.00000000	      0.00000000	     48.54450426	    -11.49263983	      1.47599582	     40.62106703	      0.70897137	      2.07059332	      4.88191260	      0.00000000	      0.00000000	    -60.08698532	      1.96001836	      6.64106507	     68.97879522	    -28.36649354	     38.69558872	     56.02774906	     48.06627540	      0.00000000	      0.00000000	     69.32091116	    -11.64003439	     38.69882291	     61.06927598	     48.08319483	      0.00000000	      0.00000000
      7.53500000	    -21.80738577	    -10.37253348	      3.11420273	      0.34580641	      1.21113099	     -0.24967034	      0.00000000	      0.50000000	      0.00000000	      0.25000000	     60.87431453	    -11.44874812	    -11.52096026	     95.94738452	      1.67459777	     -2.52101637	      8.46256032	      0.00000000	      0.00000000	     47.16144085	    -12.00374496	      1.43275465	     39.05752788	      0.68168246	      1.01656889	      4.55316021	      0.00000000	      0.00000000	    -59.96650196	      2.65235409	      6.08793659	     70.57418585	    -26.86548555	     41.47045976	     54.11385879	     48.04172368	      0.00000000	      0.00000000	     68.30295913	    -13.96983569	     38.57436760	     63.00382533	     48.43970101	      0.00000000	      0.00000000
      7.54000000	    -21.75884989	    -10.96587907	      2.61955023	      0.34575615	      1.20894342	     -0.25060887	      0.00000000	      0.50000000	      0.00000000	      0.25000000	     62.25806116	    -11.20547571	    -11.49321286	     97.71063520	      1.70537230	     -1.80090885	      8.76918217	      0.00000000	      0.00000000	     45.95203670	    -12.79001504	      1.32285832	     37.65639338	      0.65722805	      0.05033515	      4.47178811	      0.00000000	      0.00000000	    -59.74083647	      3.16107943	      6.64881541	     70.68059693	    -26.59997064	     41.61341169	     54.15862719	     48.05440621	      0.00000000	      0.00000000	     67.88820566	    -14.31098231	     38.50086671	     62.84107107	     48.40778178	      0.00000000	      0.00000000
